<svg version="1.1" id="Layer_1" xmlns="http://www.w3.org/2000/svg" xmlns:xlink="http://www.w3.org/1999/xlink" x="0px" y="0px"
	 width="100%" viewBox="0 0 302 344" enable-background="new 0 0 302 344" xml:space="preserve">
<path fill="#000000" opacity="1.000000" stroke="none" 
	d="
M1.000000,134.000000 
	C1.000000,89.350426 1.000000,45.200848 1.000000,1.025636 
	C101.610619,1.025636 202.221252,1.025636 302.915955,1.025636 
	C302.915955,115.566200 302.915955,230.132477 302.915955,344.849365 
	C202.333496,344.849365 101.666779,344.849365 1.000000,344.849365 
	C1.000000,274.778870 1.000000,204.639435 1.000000,134.000000 
M215.104538,209.485001 
	C215.396744,209.593628 215.688950,209.702240 216.402390,209.992111 
	C216.402390,209.992111 216.859879,210.023743 217.091766,210.482605 
	C217.388290,210.602753 217.684814,210.722900 218.374191,211.022873 
	C218.374191,211.022873 218.806015,211.036591 219.056107,211.517654 
	C219.370453,211.636139 219.684799,211.754623 220.389374,212.031662 
	C220.389374,212.031662 220.810318,212.046967 221.109314,212.616592 
	C221.785416,213.023499 222.461502,213.430405 223.807495,214.198578 
	C225.256256,214.372299 226.705002,214.546005 228.730255,215.094696 
	C231.092102,216.809204 233.325684,218.746689 235.841339,220.193787 
	C241.880707,223.667862 246.188492,221.971375 249.001251,215.407928 
	C250.073746,212.905289 250.725159,210.955276 247.309006,209.595261 
	C245.577408,208.905899 243.988129,207.189621 246.836746,204.940842 
	C247.877457,203.968857 248.918167,202.996872 249.958862,202.024872 
	C248.817413,201.354553 247.709351,200.184875 246.528381,200.105942 
	C242.724960,199.851730 238.894669,199.999649 234.762268,199.370316 
	C233.856033,199.223099 232.949783,199.075882 232.150589,198.964691 
	C232.150589,198.964691 232.193542,198.860229 231.849960,198.286377 
	C230.580475,197.490707 229.311005,196.695053 228.019669,195.974426 
	C228.019669,195.974426 228.096436,195.989166 227.892990,195.489304 
	C227.598175,195.296371 227.303360,195.103439 227.008377,194.990982 
	C227.008377,194.990982 227.088791,194.988159 226.903168,194.479721 
	C226.605408,194.291794 226.307648,194.103882 226.009338,193.992096 
	C226.009338,193.992096 226.085434,193.989731 225.885529,193.495544 
	C225.592880,193.308762 225.300247,193.121964 225.000824,192.999023 
	C225.000824,192.999023 225.064407,192.990204 224.888229,192.488571 
	C224.595963,192.303772 224.303711,192.118973 224.002441,191.998108 
	C224.002441,191.998108 224.066437,191.989609 223.868134,191.500000 
	C223.582062,191.305161 223.295990,191.110306 223.008865,190.989700 
	C223.008865,190.989700 223.083084,190.987473 222.893723,190.482758 
	C222.599350,190.289749 222.304977,190.096756 222.009521,189.989532 
	C222.009521,189.989532 222.095261,189.987167 221.913788,189.471222 
	C221.613953,189.278671 221.314133,189.086105 221.008926,188.988205 
	C221.008926,188.988205 221.103745,188.990082 220.911148,188.464874 
	C220.621323,188.235916 220.331497,188.006943 220.048035,187.388947 
	C220.048035,187.388947 219.908646,187.025711 219.951553,186.485977 
	C219.665787,186.286331 219.380035,186.086685 219.011978,185.911621 
	C219.011978,185.911621 219.028168,185.995956 218.960617,185.135529 
	C219.292328,179.601761 219.679047,174.069855 219.868118,168.531219 
	C219.886414,167.995224 218.680420,167.417435 218.009918,166.045441 
	C217.290222,162.696777 216.570526,159.348129 215.987289,155.280823 
	C212.674347,151.174698 209.361404,147.068588 205.978195,142.214218 
	C207.688461,137.162994 209.398727,132.111771 211.830551,126.595314 
	C211.151566,120.081482 210.472580,113.567650 209.957138,106.398659 
	C209.972656,105.948761 209.988174,105.498871 210.929123,104.969551 
	C215.332138,104.667015 219.735138,104.364479 224.888504,104.009064 
	C227.275131,103.037796 229.661774,102.066528 232.698807,101.015182 
	C233.130005,100.957512 233.561203,100.899834 234.593094,100.874077 
	C235.091995,100.267075 235.590897,99.660065 236.012222,99.020584 
	C236.012222,99.020584 236.053055,99.094109 236.736023,98.998123 
	C238.178909,98.054283 239.621796,97.110443 241.792923,96.052711 
	C247.463058,92.912514 251.168976,88.239296 253.166183,81.284393 
	C254.135681,78.226875 255.105179,75.169350 256.917877,71.951004 
	C257.188965,71.785347 257.679382,71.643097 257.699890,71.450691 
	C259.334412,56.134228 255.887451,42.744118 242.996109,33.005085 
	C242.996109,33.005085 243.034821,32.995113 242.778534,32.332355 
	C240.862015,31.523438 238.945496,30.714520 237.020355,29.978647 
	C237.020355,29.978647 237.091736,29.960924 236.996811,29.218222 
	C228.341080,23.743271 218.837799,22.488312 209.079102,24.621519 
	C204.858902,25.544041 201.011063,28.170012 197.009003,30.011057 
	C197.009003,30.011057 197.021637,29.997385 196.321991,30.087460 
	C194.823044,31.108471 193.324081,32.129482 191.480972,33.230442 
	C191.259613,33.365387 191.146790,33.562469 190.544418,34.118011 
	C189.692734,35.083450 188.841049,36.048893 188.007721,37.007706 
	C188.007721,37.007706 188.014053,36.989235 187.374741,37.229713 
	C185.582291,39.826847 183.789841,42.423981 182.010086,45.008568 
	C182.010086,45.008568 182.021378,44.994755 181.350845,45.279388 
	C176.691010,55.257290 174.666260,65.504341 178.106140,76.335587 
	C178.783340,78.467850 179.322601,80.643913 179.860611,82.873405 
	C179.860611,82.873405 179.904663,82.961082 179.128723,82.964996 
	C174.603104,82.402626 173.571655,79.695709 173.838089,75.465645 
	C174.061310,71.921646 173.704254,68.216568 172.820709,64.784500 
	C172.429916,63.266510 170.276688,61.840946 168.602234,61.126328 
	C167.203156,60.529224 165.334320,61.083641 163.676270,61.034653 
	C147.988235,60.571095 149.851974,64.686737 150.075958,75.661934 
	C150.374161,77.753204 150.672348,79.844475 150.971619,81.975845 
	C150.971619,81.975845 150.934814,81.972000 150.426926,82.071007 
	C150.243668,82.353569 150.060410,82.636131 149.026306,82.980217 
	C144.451248,83.707253 142.794830,82.082184 142.753159,77.168945 
	C142.716339,72.826614 140.956894,68.498894 139.208618,63.762798 
	C136.220825,63.522488 133.219894,63.004498 130.250122,63.145058 
	C128.442062,63.230633 126.682060,64.331581 124.051720,65.001846 
	C120.174232,64.402794 118.694717,65.919106 118.927223,69.942375 
	C119.214905,74.920326 118.920944,79.931900 118.009651,84.988045 
	C113.778107,85.327141 109.521896,85.488808 105.324371,86.072517 
	C102.845345,86.417252 100.459213,87.430008 97.220398,88.266357 
	C96.817657,88.939728 96.074036,89.608963 96.065788,90.287132 
	C95.995941,96.030334 95.980759,101.777740 96.167618,107.516777 
	C96.196526,108.404907 97.335762,109.256897 98.367920,110.830940 
	C101.895744,111.554771 105.423576,112.278595 109.057541,113.863205 
	C109.761116,123.249489 110.464691,132.635773 111.018532,142.917557 
	C111.692757,156.220016 112.339058,169.524048 113.082008,182.822678 
	C113.161148,184.239258 113.805435,185.624268 114.069313,187.808746 
	C114.116875,188.864227 114.164429,189.919724 114.014801,191.616745 
	C113.973122,192.062103 113.931450,192.507477 113.229019,193.316132 
	C110.134918,194.500839 107.040817,195.685547 103.204674,197.345886 
	C103.153809,202.146149 102.778595,206.974030 103.183922,211.735458 
	C103.398300,214.253815 104.971001,216.656540 105.987724,219.046158 
	C105.987724,219.046158 105.901588,219.057327 106.276558,219.781281 
	C111.540138,219.999130 116.802101,220.312531 122.067856,220.401382 
	C125.605614,220.461090 130.107849,217.725189 131.015259,224.860947 
	C131.003693,226.022049 130.976669,227.183228 130.982986,228.344223 
	C131.039993,238.817154 131.707214,239.493408 142.052979,238.978607 
	C143.806213,238.891373 145.559677,237.957703 147.272125,238.065399 
	C152.084106,238.368027 153.375015,235.849747 153.017181,231.666000 
	C152.662872,227.523026 152.338150,223.377518 151.995102,219.167557 
	C154.750900,219.030106 156.887680,218.923538 159.507217,218.930130 
	C159.507217,218.930130 159.984543,218.795853 160.443420,218.961304 
	C160.443420,218.961304 160.928329,219.014221 161.091217,219.524902 
	C161.383331,219.717285 161.675461,219.909653 161.980255,220.027710 
	C161.980255,220.027710 161.907593,220.047775 161.989029,220.964676 
	C161.911163,226.835587 161.420319,232.779434 164.222961,238.028091 
	C162.764252,237.012070 161.305557,235.996033 159.796951,234.278839 
	C155.608536,230.919434 156.937820,235.673798 155.964600,236.961472 
	C155.964600,236.961472 155.967377,236.883636 155.459015,237.074448 
	C155.276459,237.375351 155.093903,237.676270 154.984802,237.986969 
	C154.984802,237.986969 154.946594,237.923477 154.289978,238.200287 
	C151.761154,239.479752 149.175171,240.659805 146.721649,242.070236 
	C144.764145,243.195496 141.067291,241.917404 140.927612,246.516281 
	C140.581299,246.990372 140.234985,247.464478 139.967850,247.949478 
	C139.967850,247.949478 139.947327,247.872238 139.282242,248.018738 
	C138.164032,248.666382 137.045807,249.314026 135.993698,249.988327 
	C135.993698,249.988327 135.967682,249.921967 135.226486,250.049072 
	C132.108978,251.690598 128.991470,253.332138 125.417923,255.082642 
	C125.122070,255.261581 124.975105,255.523926 124.508804,256.071442 
	C124.397217,256.363708 124.285637,256.655975 123.993752,257.403595 
	C123.993752,257.403595 123.872391,257.878082 123.087341,257.977814 
	C118.436310,260.339050 119.106003,265.930603 124.655769,271.177521 
	C126.418762,270.080048 128.176727,268.985687 130.616119,268.239960 
	C131.683777,271.692871 134.211258,271.327881 136.854401,270.608459 
	C139.882294,269.784332 142.903091,268.934204 146.250305,268.708252 
	C146.973770,269.834106 147.959778,270.871063 148.376175,272.100891 
	C150.391190,278.052155 152.253143,284.055237 154.294174,290.795685 
	C155.138657,293.848907 155.983124,296.902161 156.890152,300.181549 
	C159.393158,299.273865 162.910995,298.782349 165.297516,296.875183 
	C167.084396,295.447205 171.407913,294.151337 168.993484,289.273132 
	C168.997208,288.531281 169.000916,287.789429 169.870941,286.962952 
	C170.249603,285.536957 171.042953,284.079773 170.938354,282.690155 
	C170.343887,274.792297 169.534897,266.910614 168.943756,258.181274 
	C168.636215,255.129883 168.328690,252.078476 168.689789,248.660507 
	C169.454529,245.096542 170.219269,241.532578 171.499924,237.857193 
	C171.695511,237.571747 171.891083,237.286301 172.016693,236.998962 
	C172.016693,236.998962 172.024872,237.068497 172.919632,236.986923 
	C174.234283,236.977432 175.561768,236.844177 176.861450,236.979004 
	C184.122696,237.732224 185.557953,233.493561 185.003571,227.609146 
	C184.609039,223.421509 184.373535,219.218918 184.806046,215.004608 
	C185.540573,214.950119 186.275085,214.895645 187.807648,214.992813 
	C194.557953,211.694427 201.308258,208.396057 208.720291,205.252426 
	C210.462570,206.207108 212.204865,207.161774 213.967194,208.034195 
	C213.967194,208.034195 213.883011,208.025238 214.088150,208.529556 
	C214.387070,208.721130 214.686005,208.912704 214.980606,209.015701 
	C214.980606,209.015701 214.892532,209.025909 215.104538,209.485001 
M91.988678,152.989487 
	C91.988678,152.989487 91.978310,152.888138 91.464020,153.077652 
	C91.264442,153.375473 91.064873,153.673294 90.982025,153.985703 
	C90.982025,153.985703 90.966095,153.869141 90.446808,154.057297 
	C90.250435,154.359268 90.054070,154.661240 89.971001,154.977158 
	C89.971001,154.977158 89.935799,154.868576 89.296715,155.007324 
	C88.502327,155.655807 87.707939,156.304306 86.990089,156.987946 
	C86.990089,156.987946 86.983795,156.903961 86.471344,157.089142 
	C86.274559,157.385956 86.077774,157.682755 85.976578,157.986313 
	C85.976578,157.986313 85.947678,157.894943 85.294487,158.006287 
	C84.478012,158.659805 83.661537,159.313324 82.273491,160.197479 
	C81.771736,160.527451 81.269981,160.857422 80.087753,161.370087 
	C77.334610,162.577850 74.581467,163.785614 71.461197,165.032547 
	C71.461197,165.032547 71.119965,165.173553 70.374481,165.048004 
	C69.119476,165.744492 67.769035,166.312393 66.626373,167.160278 
	C62.229424,170.422852 63.122410,180.527344 68.011711,183.823563 
	C67.736954,189.898468 67.462196,195.973389 67.069550,202.970154 
	C67.047310,214.794540 66.989555,226.619110 67.045517,238.443130 
	C67.052940,240.010208 67.639061,241.574570 68.017128,243.582916 
	C68.017128,243.582916 68.107109,244.020554 68.003677,244.949173 
	C68.343086,256.624268 68.666824,268.299866 69.059242,279.973206 
	C69.083885,280.706329 69.645401,281.421448 70.005829,283.024628 
	C71.027733,292.845245 72.086418,302.662292 73.051094,312.488525 
	C73.378082,315.819183 75.212296,316.744019 78.352364,317.033356 
	C83.231239,317.482910 82.793900,313.687317 83.947441,310.214294 
	C83.637871,308.768127 83.328300,307.321960 82.958359,305.427032 
	C82.958359,305.427032 82.866905,304.983582 82.972427,304.071533 
	C82.326744,297.987549 81.681061,291.903564 80.976288,285.406738 
	C80.976288,285.406738 80.886917,284.999390 80.985695,284.081512 
	C80.671326,280.037781 80.356956,275.994049 79.999886,271.992920 
	C79.999886,271.992920 80.060204,271.991150 80.040260,271.057922 
	C79.704628,265.979584 79.368988,260.901215 79.003593,254.908173 
	C78.931320,232.575073 78.859047,210.241959 79.476791,187.679016 
	C82.278008,183.693817 85.079231,179.708633 88.569679,175.959824 
	C90.700500,175.250397 92.831329,174.540955 95.484436,173.936249 
	C95.677780,173.655975 95.871124,173.375702 96.616386,172.874771 
	C97.116798,172.275909 97.617218,171.677032 98.006157,171.029984 
	C98.006157,171.029984 98.076645,171.128860 98.729324,170.993256 
	C99.859543,170.019547 100.989754,169.045822 102.019188,168.020157 
	C102.019188,168.020157 102.065895,168.123474 102.713829,168.002350 
	C103.532829,167.350052 104.351822,166.697754 105.601051,166.028091 
	C105.601051,166.028091 105.997520,165.860107 106.532341,165.911636 
	C106.726181,165.622070 106.920013,165.332520 107.019363,165.012329 
	C107.019363,165.012329 107.062363,165.101883 107.792030,164.722656 
	C107.867241,158.120728 107.942459,151.518799 108.001137,144.447556 
	C108.001137,144.447556 107.850410,144.002823 107.991211,143.192917 
	C107.337585,141.757858 106.683960,140.322800 105.893806,138.395432 
	C105.590881,138.568954 105.287949,138.742462 104.309471,139.047043 
	C103.507133,140.014618 102.704788,140.982178 101.987747,141.977142 
	C101.987747,141.977142 101.980339,141.887863 101.476288,142.089676 
	C101.289032,142.388779 101.101776,142.687866 100.991196,142.996078 
	C100.991196,142.996078 100.964096,142.923767 100.369568,143.188446 
	C99.880379,144.111313 99.391182,145.034180 98.987030,145.991425 
	C98.987030,145.991425 98.952713,145.906342 98.375832,146.155212 
	C97.554054,147.088364 96.732269,148.021515 95.991463,148.993195 
	C95.991463,148.993195 95.955055,148.911255 95.376709,149.155548 
	C94.552849,150.086655 93.728989,151.017761 92.986099,151.984085 
	C92.986099,151.984085 92.979706,151.896011 92.464020,152.078720 
	C92.271790,152.378876 92.079559,152.679031 91.988678,152.989487 
M184.828476,316.572021 
	C188.283569,314.522156 193.139008,313.916168 193.572815,308.178070 
	C192.453857,308.178070 191.532059,307.908569 190.892487,308.219543 
	C184.104446,311.519775 177.058716,313.571167 169.417038,313.430664 
	C166.623154,313.379272 163.786804,313.675018 161.037247,314.179718 
	C159.993958,314.371277 158.479660,315.512695 158.370728,316.372101 
	C158.240082,317.402832 159.107971,319.058411 160.037216,319.606842 
	C161.387039,320.403564 163.269073,320.982513 164.766113,320.727264 
	C171.241196,319.623413 177.658783,318.182251 184.828476,316.572021 
M106.551247,264.085602 
	C106.551247,262.194611 106.551247,260.303589 106.551247,258.337494 
	C102.408089,259.374847 101.013344,262.364105 101.866035,266.328552 
	C102.411827,268.866089 102.572716,271.706390 102.023888,274.218140 
	C100.382767,281.728912 103.965416,291.308624 109.862000,293.942230 
	C108.893074,290.085449 107.408737,286.310974 107.121109,282.447357 
	C106.818077,278.376770 107.806786,274.225525 107.928780,270.100555 
	C107.980537,268.350555 107.261887,266.577820 106.551247,264.085602 
M172.340683,304.221283 
	C176.740433,305.124481 176.981735,304.993164 178.479858,300.863800 
	C176.874344,301.495911 175.278214,302.124329 173.616394,302.778625 
	C172.287491,295.965363 172.287491,295.965363 165.558868,300.570251 
	C167.799103,301.856873 169.702499,302.950043 172.340683,304.221283 
z"/>
<path fill="#C6C6C6" opacity="1.000000" stroke="none" 
	d="
M108.951408,113.002426 
	C105.423576,112.278595 101.895744,111.554771 98.176682,110.012039 
	C97.993736,105.795914 98.002014,102.398705 98.473473,99.000992 
	C103.364471,98.720764 107.879082,98.877045 112.191704,98.018585 
	C115.439835,97.372025 118.429092,95.424965 122.587250,93.592430 
	C122.242905,92.292923 121.520226,89.565666 120.806442,86.582375 
	C120.842987,86.157799 120.870636,85.989250 121.370560,85.878967 
	C128.573181,85.611343 135.303513,85.285454 142.475128,84.981178 
	C146.263580,84.654327 149.610794,84.305870 153.430420,83.972214 
	C160.283646,83.964607 166.664413,83.942192 173.460892,83.946716 
	C175.885941,83.636124 177.895309,83.298607 179.904663,82.961082 
	C179.904663,82.961082 179.860611,82.873405 180.254700,82.925934 
	C182.473358,83.673462 184.325760,84.303757 186.117722,85.074554 
	C194.231964,88.564819 201.853226,92.593117 205.871445,101.216217 
	C206.606293,102.793228 208.594193,103.786331 210.003693,105.048973 
	C209.988174,105.498871 209.972656,105.948761 209.642853,107.027359 
	C209.522232,114.109505 209.715912,120.562958 209.657654,127.280563 
	C208.709412,129.838913 207.980316,132.123795 207.325134,134.429688 
	C206.516006,137.277451 205.768311,140.142639 205.029007,143.346985 
	C208.659592,147.795593 212.255203,151.897537 215.850830,155.999466 
	C216.570526,159.348129 217.290222,162.696777 217.994598,166.927444 
	C217.751999,173.083008 217.449875,178.355576 217.379089,183.631241 
	C217.368607,184.411957 218.451263,185.207352 219.028168,185.995956 
	C219.028168,185.995956 219.011978,185.911621 219.033829,186.196472 
	C219.067001,186.679459 219.078323,186.877579 218.817368,187.288666 
	C215.647888,192.953705 212.750687,198.405807 209.568054,203.901031 
	C208.897141,203.968719 208.511642,203.993286 207.762482,204.048279 
	C203.565308,206.234375 199.767853,208.457809 195.886398,210.523376 
	C192.983612,212.068130 189.972488,213.409317 187.009613,214.841156 
	C186.275085,214.895645 185.540573,214.950119 184.159653,215.279175 
	C183.010651,218.699295 182.508026,221.844879 181.759064,225.256287 
	C173.362762,227.652802 172.818497,227.213348 174.682877,219.547562 
	C175.611420,215.729614 174.076157,214.427994 169.850449,214.653595 
	C170.178558,216.870621 170.421616,218.782806 170.750320,220.680176 
	C171.548462,225.287292 168.164734,231.041641 164.042755,231.538452 
	C164.019791,228.958633 164.279572,226.791840 163.924606,224.730911 
	C163.644104,223.102386 162.608078,221.603973 161.907593,220.047775 
	C161.907593,220.047775 161.980255,220.027710 161.866028,219.827362 
	C161.477310,219.422760 161.202820,219.218491 160.928329,219.014221 
	C160.928329,219.014221 160.443420,218.961304 160.115005,218.751541 
	C159.461090,218.373260 159.207047,218.464996 159.024460,218.816956 
	C156.887680,218.923538 154.750900,219.030106 151.995102,219.167557 
	C152.338150,223.377518 152.662872,227.523026 153.017181,231.666000 
	C153.375015,235.849747 152.084106,238.368027 147.272125,238.065399 
	C145.559677,237.957703 143.806213,238.891373 142.052979,238.978607 
	C131.707214,239.493408 131.039993,238.817154 130.982986,228.344223 
	C130.976669,227.183228 131.003693,226.022049 131.333511,224.122437 
	C131.953781,218.320831 131.174606,217.663025 125.680336,217.996567 
	C119.090240,218.396622 112.494743,218.707718 105.901588,219.057327 
	C105.901588,219.057327 105.987724,219.046158 105.982086,218.643372 
	C105.632698,211.811935 105.288948,205.383316 105.055260,198.591522 
	C106.653427,197.810013 108.288292,197.651215 109.595131,196.912292 
	C111.542336,195.811264 113.258049,194.300842 115.298477,192.794037 
	C115.682274,192.086807 115.839851,191.550110 115.998718,190.612671 
	C115.996284,189.143387 115.992577,188.074844 115.990181,186.577667 
	C114.991501,173.102203 113.991501,160.055389 112.998123,146.553680 
	C112.674767,139.677216 112.390671,133.252838 111.998695,126.835052 
	C111.737808,122.563606 111.376129,118.295517 110.893005,114.044853 
	C110.845757,113.629181 109.626602,113.346710 108.951408,113.002426 
M175.742386,111.622742 
	C175.445389,111.432487 175.148376,111.242233 174.940979,111.048141 
	C174.940979,111.048141 174.926437,111.136627 174.837601,110.371368 
	C173.196609,109.921852 171.555618,109.472336 169.033356,109.004242 
	C166.390991,109.013756 163.748642,109.023270 160.179428,109.000824 
	C156.568604,108.688950 152.956406,108.100639 149.347198,108.118355 
	C139.528687,108.166534 135.850159,109.626656 138.959381,121.935623 
	C138.972519,124.745216 138.635330,127.616554 139.115936,130.343765 
	C139.464798,132.323364 140.896057,134.112213 142.300186,136.726120 
	C146.847549,136.460159 151.394928,136.194183 156.540115,136.506073 
	C159.615982,136.636383 162.793777,137.299255 165.736877,136.735931 
	C168.295258,136.246246 170.588303,134.370193 173.363403,132.926086 
	C173.363403,132.926086 173.770065,132.944794 174.470810,132.997284 
	C175.306732,132.300568 176.142654,131.603867 177.006973,130.199295 
	C177.968857,128.456390 178.930740,126.713470 180.566666,124.660683 
	C182.676926,120.734627 181.620941,116.518471 177.979126,114.024452 
	C177.979126,114.024452 177.974731,114.098511 177.740189,113.630791 
	C177.461990,113.428329 177.183807,113.225868 176.979843,113.021538 
	C176.979843,113.021538 176.973846,113.095558 176.745667,112.619339 
	C176.459000,112.424370 176.172318,112.229401 175.969284,112.029465 
	C175.969284,112.029465 175.963943,112.113060 175.742386,111.622742 
M143.072937,168.034760 
	C143.072937,168.034760 143.165756,168.046875 142.467926,168.256317 
	C142.688690,172.199234 142.909454,176.142151 143.022995,180.907333 
	C143.385162,183.916809 143.747330,186.926300 143.693726,190.382416 
	C145.384842,191.269440 147.084000,192.926346 148.765656,192.908783 
	C155.661697,192.836792 162.577148,192.488937 169.435120,191.765472 
	C173.091034,191.379822 176.644211,190.020340 180.902023,188.975708 
	C181.900864,187.591049 182.899704,186.206390 183.913086,184.914124 
	C183.913086,184.914124 183.820755,184.899124 184.566574,184.981262 
	C189.409698,181.219101 190.522507,175.679047 186.886047,171.396378 
	C184.149811,167.020996 181.036819,163.134460 175.260086,163.013992 
	C170.488556,162.914474 165.715118,162.907776 160.334457,162.311432 
	C156.609970,162.226608 152.856293,161.836319 149.173538,162.188293 
	C147.383118,162.359421 145.725357,163.918533 143.600021,165.022827 
	C143.600021,165.022827 143.157913,165.049820 142.798843,165.201263 
	C142.695129,165.275986 142.591400,165.350708 142.487671,165.425430 
	C142.632309,165.611298 142.776947,165.797150 143.072815,166.369934 
	C143.072815,166.369934 143.058548,166.785110 143.010223,167.457550 
	C143.033157,167.681107 143.056107,167.904648 143.072937,168.034760 
z"/>
<path fill="#FAC405" opacity="1.000000" stroke="none" 
	d="
M256.074677,72.111832 
	C255.105179,75.169350 254.135681,78.226875 252.666473,81.681793 
	C249.423645,85.706100 246.680542,89.333015 243.568604,92.961533 
	C237.205048,90.837051 237.208542,90.837494 236.410492,97.173805 
	C236.329269,97.818680 236.173981,98.454231 236.053055,99.094109 
	C236.053055,99.094109 236.012222,99.020584 235.735809,99.053123 
	C234.970398,99.671158 234.481400,100.256653 233.992401,100.842148 
	C233.561203,100.899834 233.130005,100.957512 232.357956,100.659004 
	C231.640198,97.106567 231.492905,93.882568 227.257812,97.938805 
	C225.103897,100.001755 222.328308,101.415619 219.451385,103.136200 
	C218.050079,103.106171 217.031143,103.062843 215.996277,102.634781 
	C212.947769,100.503174 209.915176,98.756317 206.826157,96.832474 
	C206.769714,96.655495 206.744339,96.284821 206.936081,95.957306 
	C207.431793,94.133560 207.735779,92.637321 208.039749,91.141083 
	C206.648926,91.515511 205.258118,91.889931 203.509598,92.215927 
	C202.827438,92.094200 202.428467,92.117561 202.189453,91.933372 
	C196.821091,87.796516 191.665161,83.391441 184.475372,82.470924 
	C183.447433,82.339317 182.743256,79.679008 181.922134,77.822853 
	C181.784378,75.718666 181.444672,74.535637 184.020233,73.589798 
	C188.288849,72.022202 189.443680,68.072922 188.334366,66.540581 
	C185.027618,67.115646 182.520248,67.551689 180.009293,67.538986 
	C179.999207,63.052025 179.992737,59.013813 180.119934,54.620296 
	C180.842880,51.174911 181.432129,48.084831 182.021378,44.994755 
	C182.021378,44.994755 182.010086,45.008568 182.380005,45.050247 
	C187.092422,44.072239 187.405716,40.434895 188.014053,36.989235 
	C188.014053,36.989235 188.007721,37.007706 188.384369,37.052700 
	C189.554855,36.005692 190.348679,34.913689 191.142487,33.821686 
	C191.146790,33.562469 191.259613,33.365387 192.045486,33.209549 
	C194.080551,32.124905 195.551102,31.061148 197.021637,29.997387 
	C197.021637,29.997385 197.009003,30.011057 197.397079,30.059994 
	C199.355927,29.689730 200.919403,29.240387 202.498917,28.857225 
	C206.568390,27.870037 210.603561,26.649923 214.727585,25.998760 
	C222.583191,24.758398 229.734589,28.061722 237.091736,29.960924 
	C237.091736,29.960924 237.020355,29.978647 237.069244,30.299889 
	C239.090378,31.412458 241.062592,32.203785 243.034821,32.995113 
	C243.034821,32.995113 242.996109,33.005085 242.967712,33.356895 
	C245.863556,37.833401 249.504730,41.643040 251.497238,46.177177 
	C253.260452,50.189537 256.293610,53.794209 254.960281,59.471577 
	C254.174759,62.816280 255.055893,67.265617 254.445114,71.228851 
	C254.413406,71.434578 255.505676,71.813530 256.074677,72.111832 
M251.102982,55.255161 
	C251.180923,55.301430 251.258881,55.347702 251.336838,55.393959 
	C251.224762,55.262489 251.112686,55.131020 250.998749,54.177219 
	C250.578186,51.933014 250.157623,49.688808 249.737061,47.444603 
	C249.284378,47.557873 248.831680,47.671143 248.378998,47.784412 
	C249.123215,50.227921 243.096115,54.667885 251.102982,55.255161 
M192.711197,46.164841 
	C191.969284,45.858841 190.990402,45.092171 190.528198,45.329929 
	C188.892258,46.171436 187.432968,47.356346 185.760330,48.512268 
	C186.859619,52.123089 188.152298,56.369102 189.444962,60.615120 
	C189.729889,60.479271 190.014801,60.343426 190.299728,60.207581 
	C190.981750,55.700912 191.663757,51.194244 192.711197,46.164841 
M247.521194,66.808617 
	C248.429001,67.159126 249.336792,67.509644 251.465820,68.331680 
	C249.975235,65.033913 249.042404,62.970142 248.109589,60.906372 
	C247.497345,61.057045 246.885101,61.207714 246.272858,61.358383 
	C246.553391,62.966805 246.833939,64.575226 247.521194,66.808617 
z"/>
<path fill="#C6C7C7" opacity="1.000000" stroke="none" 
	d="
M164.060349,231.997131 
	C168.164734,231.041641 171.548462,225.287292 170.750320,220.680176 
	C170.421616,218.782806 170.178558,216.870621 169.850449,214.653595 
	C174.076157,214.427994 175.611420,215.729614 174.682877,219.547562 
	C172.818497,227.213348 173.362762,227.652802 182.025208,225.546997 
	C183.694153,233.918686 182.848312,234.978271 175.003220,234.640305 
	C176.486526,232.812393 177.969849,231.354523 180.530533,228.837769 
	C176.763245,229.222092 173.996414,229.123184 171.614319,230.032303 
	C171.062317,230.242996 171.823547,233.894547 171.990753,236.239258 
	C172.008957,236.699966 172.016907,236.884232 172.024872,237.068497 
	C172.024872,237.068497 172.016693,236.998962 171.848206,237.139053 
	C171.412430,237.473297 171.180542,237.703110 170.984009,237.968613 
	C170.219269,241.532578 169.454529,245.096542 168.117706,248.594238 
	C166.743530,249.270996 165.155533,250.171478 165.267685,250.731293 
	C165.962830,254.200745 167.039948,257.593658 167.986328,261.476929 
	C168.323151,270.310455 168.663895,278.679016 169.004639,287.047577 
	C169.000916,287.789429 168.997208,288.531281 168.691986,289.439758 
	C166.981506,289.048279 165.510696,287.905731 164.175659,288.046906 
	C160.807632,288.403046 157.500763,289.337341 154.169373,290.039948 
	C152.253143,284.055237 150.391190,278.052155 148.376175,272.100891 
	C147.959778,270.871063 146.973770,269.834106 146.285706,268.110291 
	C146.789978,266.568085 147.857834,265.438995 147.632523,264.708954 
	C145.901199,259.098999 143.918793,253.566528 142.031616,247.748581 
	C142.062988,247.313156 142.077026,247.139145 142.344727,246.711884 
	C143.967072,245.636139 145.262787,244.640518 146.719345,244.026413 
	C149.979294,242.651993 154.349319,242.866638 154.946594,237.923477 
	C154.946594,237.923477 154.984802,237.986969 155.181396,237.861160 
	C155.574448,237.451447 155.770905,237.167542 155.967377,236.883636 
	C155.967377,236.883636 155.964600,236.961472 156.256073,236.934143 
	C157.647324,236.264526 158.747086,235.622253 159.846832,234.979980 
	C161.305557,235.996033 162.764252,237.012070 164.896088,237.964844 
	C165.066254,235.933456 164.563293,233.965286 164.060349,231.997131 
M167.371841,244.647079 
	C167.500793,244.148911 167.629761,243.650742 167.758728,243.152557 
	C167.584167,243.115097 167.409607,243.077637 167.235031,243.040176 
	C167.146530,243.687546 167.058029,244.334915 166.727737,245.103561 
	C166.826172,245.081619 166.924622,245.059677 167.371841,244.647079 
z"/>
<path fill="#774421" opacity="1.000000" stroke="none" 
	d="
M68.107109,244.020554 
	C68.107109,244.020554 68.017128,243.582916 68.003922,242.880447 
	C67.986900,231.057205 68.026009,219.936111 67.943512,208.815918 
	C67.926758,206.558304 67.451393,204.304077 67.187447,202.048294 
	C67.462196,195.973389 67.736954,189.898468 67.965622,183.106644 
	C67.919540,182.389725 67.963699,181.905869 68.343887,181.885101 
	C70.703407,181.276764 72.655869,180.495880 74.677811,180.214890 
	C75.316132,180.126175 76.140381,181.375366 76.619873,182.226379 
	C75.560837,184.309189 74.761452,186.177872 73.542580,189.027191 
	C76.083832,188.485275 77.435303,188.197067 78.786774,187.908875 
	C78.859047,210.241959 78.931320,232.575073 78.993019,255.799057 
	C79.341698,261.790344 79.700951,266.890747 80.060204,271.991150 
	C80.060204,271.991150 79.999886,271.992920 79.991516,272.418823 
	C79.970802,275.230927 79.958466,277.617157 79.611923,280.067139 
	C78.449432,281.011658 77.621140,281.892365 76.869629,282.691406 
	C74.446419,279.283081 72.213997,276.143127 69.983871,272.549835 
	C69.859688,266.575470 69.885056,261.045288 69.554886,255.536423 
	C69.323914,251.682724 68.606995,247.858139 68.107109,244.020554 
z"/>
<path fill="#C8C9C9" opacity="1.000000" stroke="none" 
	d="
M104.985016,138.915970 
	C105.287949,138.742462 105.590881,138.568954 105.952332,139.011841 
	C106.624046,141.086456 107.237228,142.544632 107.850410,144.002823 
	C107.850410,144.002823 108.001137,144.447556 107.997383,145.110687 
	C107.683205,152.216492 107.372787,158.659195 107.062363,165.101883 
	C107.062363,165.101883 107.019363,165.012329 106.841797,165.107056 
	C106.363701,165.341919 106.141464,165.561371 105.997520,165.860107 
	C105.997520,165.860107 105.601051,166.028091 105.012970,166.024261 
	C103.638550,166.721436 102.852226,167.422455 102.065895,168.123474 
	C102.065895,168.123474 102.019188,168.020157 101.692032,168.025391 
	C100.268806,169.063385 99.172729,170.096130 98.076645,171.128860 
	C98.076645,171.128860 98.006157,171.029984 97.704559,171.018799 
	C96.925575,171.013168 96.448174,171.018707 95.736374,171.195786 
	C95.334190,171.912125 95.166412,172.456909 94.999313,173.000854 
	C95.000000,173.000000 95.000343,172.999588 94.615601,172.973297 
	C90.141815,172.233093 86.032280,166.449249 85.267303,159.808426 
	C85.651245,159.043030 85.799461,158.468979 85.947678,157.894943 
	C85.947678,157.894943 85.976578,157.986313 86.167221,157.864868 
	C86.566505,157.463608 86.775146,157.183792 86.983795,156.903961 
	C86.983795,156.903961 86.990089,156.987946 87.319061,156.987335 
	C88.410622,156.280685 89.173210,155.574631 89.935799,154.868576 
	C89.935799,154.868576 89.971001,154.977158 90.164688,154.862122 
	C90.560951,154.454437 90.763527,154.161789 90.966095,153.869141 
	C90.966095,153.869141 90.982025,153.985703 91.169189,153.866486 
	C91.563667,153.460876 91.770988,153.174515 91.978310,152.888138 
	C91.978310,152.888138 91.988678,152.989487 92.178886,152.869659 
	C92.572632,152.465240 92.776169,152.180618 92.979706,151.896011 
	C92.979706,151.896011 92.986099,151.984085 93.327042,151.981323 
	C94.430336,150.956116 95.192696,149.933685 95.955055,148.911255 
	C95.955055,148.911255 95.991463,148.993195 96.332161,148.986038 
	C97.432808,147.954697 98.192757,146.930511 98.952713,145.906342 
	C98.952713,145.906342 98.987030,145.991425 99.298828,145.930099 
	C100.061790,144.887100 100.512947,143.905441 100.964096,142.923767 
	C100.964096,142.923767 100.991196,142.996078 101.184082,142.865845 
	C101.578094,142.453018 101.779221,142.170441 101.980347,141.887863 
	C101.980339,141.887863 101.987747,141.977142 102.325287,141.975983 
	C103.436890,140.955200 104.210953,139.935593 104.985016,138.915970 
z"/>
<path fill="#C5C7C8" opacity="1.000000" stroke="none" 
	d="
M118.878265,84.928947 
	C118.920944,79.931900 119.214905,74.920326 118.927223,69.942375 
	C118.694717,65.919106 120.174232,64.402794 124.848564,65.035362 
	C130.055054,65.080566 134.464691,65.092255 139.075851,65.450775 
	C139.846069,71.528427 140.414780,77.259254 140.564667,83.006485 
	C133.721252,83.746429 127.296677,84.469955 120.539719,85.148941 
	C119.764320,85.045921 119.321289,84.987434 118.878265,84.928947 
z"/>
<path fill="#794723" opacity="1.000000" stroke="none" 
	d="
M69.981575,273.003143 
	C72.213997,276.143127 74.446419,279.283081 76.869629,282.691406 
	C77.621140,281.892365 78.449432,281.011658 79.630539,280.447662 
	C80.284538,282.176056 80.585724,283.587708 80.886917,284.999390 
	C80.886917,284.999390 80.976288,285.406738 80.979401,286.086243 
	C81.610641,292.838379 82.238770,298.910980 82.866905,304.983582 
	C82.866905,304.983582 82.958359,305.427032 82.970894,306.044312 
	C83.272713,308.104706 83.562004,309.547882 83.851295,310.991028 
	C82.793900,313.687317 83.231239,317.482910 78.352364,317.033356 
	C75.212296,316.744019 73.378082,315.819183 73.051094,312.488525 
	C72.086418,302.662292 71.027733,292.845245 69.998940,282.122009 
	C69.988556,278.480652 69.985062,275.741882 69.981575,273.003143 
z"/>
<path fill="#C7C9C9" opacity="1.000000" stroke="none" 
	d="
M150.970551,81.935745 
	C150.672348,79.844475 150.374161,77.753204 150.332642,74.934402 
	C151.593155,63.629261 152.287170,63.001438 162.951950,63.023293 
	C164.108139,63.025661 165.286774,63.175453 166.416473,63.003593 
	C170.442657,62.391106 171.799622,64.725685 171.903885,68.099617 
	C172.046616,72.718597 171.921204,77.345879 171.452362,81.971481 
	C164.994781,81.981750 158.995590,81.990135 152.985046,81.711868 
	C152.878189,80.962257 152.782684,80.499298 152.687180,80.036331 
	C152.114975,80.669472 151.542755,81.302612 150.970551,81.935745 
z"/>
<path fill="#949494" opacity="1.000000" stroke="none" 
	d="
M142.014313,248.010010 
	C143.918793,253.566528 145.901199,259.098999 147.632523,264.708954 
	C147.857834,265.438995 146.789978,266.568085 146.124039,267.803894 
	C142.903091,268.934204 139.882294,269.784332 136.854401,270.608459 
	C134.211258,271.327881 131.683777,271.692871 130.311234,267.700562 
	C127.961693,264.066803 125.917038,260.972443 123.872391,257.878082 
	C123.872391,257.878082 123.993752,257.403595 124.270767,257.041473 
	C124.748688,256.440125 124.891762,256.170227 124.977028,255.869690 
	C124.975105,255.523926 125.122070,255.261581 126.033684,255.028015 
	C129.755524,253.289581 132.861603,251.605774 135.967682,249.921967 
	C135.967682,249.921967 135.993698,249.988327 136.345245,249.992401 
	C137.780304,249.288391 138.863815,248.580307 139.947327,247.872238 
	C139.947327,247.872238 139.967850,247.949478 140.281891,247.975311 
	C141.068741,248.004089 141.541519,248.007050 142.014313,248.010010 
z"/>
<path fill="#E4AD53" opacity="1.000000" stroke="none" 
	d="
M246.071045,204.989197 
	C243.988129,207.189621 245.577408,208.905899 247.309006,209.595261 
	C250.725159,210.955276 250.073746,212.905289 249.001251,215.407928 
	C246.188492,221.971375 241.880707,223.667862 235.841339,220.193787 
	C233.325684,218.746689 231.092102,216.809204 228.352188,214.569229 
	C229.998520,210.013412 232.022919,205.983078 234.415298,201.921921 
	C238.131409,201.615250 241.482178,201.094971 244.826950,201.130997 
	C248.302399,201.168411 248.227173,202.866470 246.071045,204.989197 
z"/>
<path fill="#949494" opacity="1.000000" stroke="none" 
	d="
M209.853485,203.857895 
	C212.750687,198.405807 215.647888,192.953705 219.021912,187.281891 
	C219.498718,187.062149 219.908646,187.025711 219.908646,187.025711 
	C219.908646,187.025711 220.048035,187.388947 220.149017,187.843002 
	C220.534576,188.528061 220.819168,188.759064 221.103760,188.990082 
	C221.103745,188.990082 221.008926,188.988205 221.126923,189.180969 
	C221.528366,189.578232 221.811813,189.782700 222.095261,189.987167 
	C222.095261,189.987167 222.009521,189.989532 222.126984,190.183167 
	C222.523987,190.580368 222.803528,190.783920 223.083084,190.987473 
	C223.083084,190.987473 223.008865,190.989700 223.124939,191.185394 
	C223.516159,191.583939 223.791290,191.786774 224.066437,191.989609 
	C224.066437,191.989609 224.002441,191.998108 224.119659,192.198044 
	C224.512726,192.595383 224.788559,192.792801 225.064407,192.990204 
	C225.064407,192.990204 225.000824,192.999023 225.126129,193.196259 
	C225.529419,193.592224 225.807434,193.790985 226.085434,193.989731 
	C226.085434,193.989731 226.009338,193.992096 226.126907,194.189346 
	C226.525909,194.587112 226.807358,194.787643 227.088791,194.988159 
	C227.088791,194.988159 227.008377,194.990982 227.130127,195.184967 
	C227.533401,195.582367 227.814911,195.785767 228.096436,195.989166 
	C228.096436,195.989166 228.019669,195.974426 228.051727,196.308456 
	C229.453705,197.381729 230.823624,198.120972 232.193542,198.860229 
	C232.193542,198.860229 232.150589,198.964691 232.019913,199.302032 
	C228.992188,203.804657 226.095139,207.969955 222.801727,212.084717 
	C221.873672,212.038452 221.341995,212.042709 220.810318,212.046967 
	C220.810318,212.046967 220.389374,212.031662 220.049316,211.746719 
	C219.408188,211.320053 219.107101,211.178314 218.806015,211.036591 
	C218.806015,211.036591 218.374191,211.022873 218.035675,210.742325 
	C217.449158,210.256348 217.170059,210.110336 216.859879,210.023743 
	C216.859879,210.023743 216.402390,209.992111 216.051666,209.719604 
	C215.464233,209.243851 215.194748,209.103455 214.892532,209.025909 
	C214.892532,209.025909 214.980606,209.015701 214.863647,208.821320 
	C214.458801,208.426376 214.170898,208.225815 213.883011,208.025238 
	C213.883011,208.025238 213.967194,208.034195 213.933868,207.766815 
	C212.551529,206.285599 211.202499,205.071747 209.853485,203.857895 
z"/>
<path fill="#EBA74B" opacity="1.000000" stroke="none" 
	d="
M76.879532,182.012253 
	C76.140381,181.375366 75.316132,180.126175 74.677811,180.214890 
	C72.655869,180.495880 70.703407,181.276764 68.157516,181.558319 
	C67.062027,179.755630 66.460869,178.280029 66.017303,176.758499 
	C64.481300,171.489624 67.922501,168.377747 71.119965,165.173553 
	C71.119965,165.173553 71.461197,165.032547 72.064606,165.025070 
	C75.067680,164.887390 78.798599,163.744278 79.615730,164.818207 
	C82.002434,167.954987 84.458191,171.948135 84.543839,175.659698 
	C84.622406,179.064285 80.984886,181.696228 76.879532,182.012253 
z"/>
<path fill="#25272B" opacity="1.000000" stroke="none" 
	d="
M184.462875,316.717896 
	C177.658783,318.182251 171.241196,319.623413 164.766113,320.727264 
	C163.269073,320.982513 161.387039,320.403564 160.037216,319.606842 
	C159.107971,319.058411 158.240082,317.402832 158.370728,316.372101 
	C158.479660,315.512695 159.993958,314.371277 161.037247,314.179718 
	C163.786804,313.675018 166.623154,313.379272 169.417038,313.430664 
	C177.058716,313.571167 184.104446,311.519775 190.892487,308.219543 
	C191.532059,307.908569 192.453857,308.178070 193.572815,308.178070 
	C193.139008,313.916168 188.283569,314.522156 184.462875,316.717896 
z"/>
<path fill="#D7C357" opacity="1.000000" stroke="none" 
	d="
M181.889252,78.188995 
	C182.743256,79.679008 183.447433,82.339317 184.475372,82.470924 
	C191.665161,83.391441 196.821091,87.796516 202.189453,91.933372 
	C202.428467,92.117561 202.827438,92.094200 203.570892,92.531067 
	C204.908051,94.024689 205.826187,95.154755 206.744339,96.284821 
	C206.744339,96.284821 206.769714,96.655495 206.850189,97.210754 
	C207.915771,103.047218 211.823914,103.275490 216.012192,103.019516 
	C217.031143,103.062843 218.050079,103.106171 219.746704,103.368805 
	C221.662308,103.746056 222.900238,103.903999 224.138153,104.061943 
	C219.735138,104.364479 215.332138,104.667015 210.466400,105.009262 
	C208.594193,103.786331 206.606293,102.793228 205.871445,101.216217 
	C201.853226,92.593117 194.231964,88.564819 186.117722,85.074554 
	C184.325760,84.303757 182.473358,83.673462 180.287140,82.889122 
	C179.322601,80.643913 178.783340,78.467850 178.106140,76.335587 
	C174.666260,65.504341 176.691010,55.257290 181.686111,45.137070 
	C181.432129,48.084831 180.842880,51.174911 179.851547,54.891518 
	C179.312973,60.342316 179.176498,65.166588 179.023056,70.371964 
	C179.048477,71.514221 179.090866,72.275375 179.208649,73.255600 
	C179.454727,73.744995 179.684067,73.949661 179.962921,74.433517 
	C180.598953,75.915245 181.244095,77.052116 181.889252,78.188995 
z"/>
<path fill="#25272B" opacity="1.000000" stroke="none" 
	d="
M106.722305,264.450500 
	C107.261887,266.577820 107.980537,268.350555 107.928780,270.100555 
	C107.806786,274.225525 106.818077,278.376770 107.121109,282.447357 
	C107.408737,286.310974 108.893074,290.085449 109.862000,293.942230 
	C103.965416,291.308624 100.382767,281.728912 102.023888,274.218140 
	C102.572716,271.706390 102.411827,268.866089 101.866035,266.328552 
	C101.013344,262.364105 102.408089,259.374847 106.551247,258.337494 
	C106.551247,260.303589 106.551247,262.194611 106.722305,264.450500 
z"/>
<path fill="#F0F4F4" opacity="1.000000" stroke="none" 
	d="
M154.231781,290.417816 
	C157.500763,289.337341 160.807632,288.403046 164.175659,288.046906 
	C165.510696,287.905731 166.981506,289.048279 168.653030,289.809265 
	C171.407913,294.151337 167.084396,295.447205 165.297516,296.875183 
	C162.910995,298.782349 159.393158,299.273865 156.890152,300.181549 
	C155.983124,296.902161 155.138657,293.848907 154.231781,290.417816 
z"/>
<path fill="#D7C357" opacity="1.000000" stroke="none" 
	d="
M256.496277,72.031418 
	C255.505676,71.813530 254.413406,71.434578 254.445114,71.228851 
	C255.055893,67.265617 254.174759,62.816280 254.960281,59.471577 
	C256.293610,53.794209 253.260452,50.189537 251.497238,46.177177 
	C249.504730,41.643040 245.863556,37.833401 242.971832,33.337326 
	C255.887451,42.744118 259.334412,56.134228 257.699890,71.450691 
	C257.679382,71.643097 257.188965,71.785347 256.496277,72.031418 
z"/>
<path fill="#DCEDF7" opacity="1.000000" stroke="none" 
	d="
M171.910736,81.969597 
	C171.921204,77.345879 172.046616,72.718597 171.903885,68.099617 
	C171.799622,64.725685 170.442657,62.391106 166.416473,63.003593 
	C165.286774,63.175453 164.108139,63.025661 162.951950,63.023293 
	C152.287170,63.001438 151.593155,63.629261 150.453186,74.546188 
	C149.851974,64.686737 147.988235,60.571095 163.676270,61.034653 
	C165.334320,61.083641 167.203156,60.529224 168.602234,61.126328 
	C170.276688,61.840946 172.429916,63.266510 172.820709,64.784500 
	C173.704254,68.216568 174.061310,71.921646 173.838089,75.465645 
	C173.571655,79.695709 174.603104,82.402626 179.516693,82.963043 
	C177.895309,83.298607 175.885941,83.636124 173.414398,83.654343 
	C172.605057,82.879890 172.257904,82.424744 171.910736,81.969597 
z"/>
<path fill="#D1A972" opacity="1.000000" stroke="none" 
	d="
M76.619873,182.226379 
	C80.984886,181.696228 84.622406,179.064285 84.543839,175.659698 
	C84.458191,171.948135 82.002434,167.954987 79.615730,164.818207 
	C78.798599,163.744278 75.067680,164.887390 72.248169,165.005493 
	C74.581467,163.785614 77.334610,162.577850 80.526718,161.627960 
	C83.270615,166.498383 85.575531,171.110916 87.880447,175.723450 
	C85.079231,179.708633 82.278008,183.693817 79.131783,187.793945 
	C77.435303,188.197067 76.083832,188.485275 73.542580,189.027191 
	C74.761452,186.177872 75.560837,184.309189 76.619873,182.226379 
z"/>
<path fill="#F0F4F4" opacity="1.000000" stroke="none" 
	d="
M123.479858,257.927948 
	C125.917038,260.972443 127.961693,264.066803 129.970520,267.526245 
	C128.176727,268.985687 126.418762,270.080048 124.655769,271.177521 
	C119.106003,265.930603 118.436310,260.339050 123.479858,257.927948 
z"/>
<path fill="#BECBD8" opacity="1.000000" stroke="none" 
	d="
M112.991501,147.008560 
	C113.991501,160.055389 114.991501,173.102203 115.690208,186.576508 
	C114.988457,187.010620 114.588005,187.017273 114.187546,187.023926 
	C113.805435,185.624268 113.161148,184.239258 113.082008,182.822678 
	C112.339058,169.524048 111.692757,156.220016 111.319901,142.730408 
	C112.078018,144.031708 112.534760,145.520126 112.991501,147.008560 
z"/>
<path fill="#D7C357" opacity="1.000000" stroke="none" 
	d="
M237.044281,29.589573 
	C229.734589,28.061722 222.583191,24.758398 214.727585,25.998760 
	C210.603561,26.649923 206.568390,27.870037 202.498917,28.857225 
	C200.919403,29.240387 199.355927,29.689730 197.389618,30.065561 
	C201.011063,28.170012 204.858902,25.544041 209.079102,24.621519 
	C218.837799,22.488312 228.341080,23.743271 237.044281,29.589573 
z"/>
<path fill="#F3F1EB" opacity="1.000000" stroke="none" 
	d="
M88.225067,175.841644 
	C85.575531,171.110916 83.270615,166.498383 80.866959,161.536621 
	C81.269981,160.857422 81.771736,160.527451 82.923973,160.088181 
	C84.060165,159.985855 84.545876,159.992828 85.031586,159.999786 
	C86.032280,166.449249 90.141815,172.233093 94.611603,173.181549 
	C94.992355,173.416092 94.962151,173.831528 94.962151,173.831528 
	C92.831329,174.540955 90.700500,175.250397 88.225067,175.841644 
z"/>
<path fill="#DCEDF7" opacity="1.000000" stroke="none" 
	d="
M150.971085,81.955795 
	C151.542755,81.302612 152.114975,80.669472 152.687180,80.036331 
	C152.782684,80.499298 152.878189,80.962257 152.980682,82.038658 
	C152.977783,83.087196 152.967896,83.522308 152.957993,83.957413 
	C149.610794,84.305870 146.263580,84.654327 142.436478,84.689957 
	C141.632202,83.914787 141.307846,83.452431 140.983490,82.990082 
	C140.414780,77.259254 139.846069,71.528427 139.295319,65.339355 
	C139.599075,64.706093 139.813995,64.467293 139.958023,64.164719 
	C140.956894,68.498894 142.716339,72.826614 142.753159,77.168945 
	C142.794830,82.082184 144.451248,83.707253 149.696686,82.881882 
	C150.556305,82.513023 150.745560,82.242508 150.934814,81.972000 
	C150.934814,81.972000 150.971619,81.975845 150.971085,81.955795 
z"/>
<path fill="#C8D3E0" opacity="1.000000" stroke="none" 
	d="
M112.998123,146.553680 
	C112.534760,145.520126 112.078018,144.031708 111.394775,142.282654 
	C110.464691,132.635773 109.761116,123.249489 109.004471,113.432816 
	C109.626602,113.346710 110.845757,113.629181 110.893005,114.044853 
	C111.376129,118.295517 111.737808,122.563606 111.998695,126.835052 
	C112.390671,133.252838 112.674767,139.677216 112.998123,146.553680 
z"/>
<path fill="#F3F1EB" opacity="1.000000" stroke="none" 
	d="
M223.198105,212.135254 
	C226.095139,207.969955 228.992188,203.804657 231.966400,199.283997 
	C232.949783,199.075882 233.856033,199.223099 234.663300,199.833679 
	C234.391983,200.848923 234.219650,201.400833 234.047318,201.952728 
	C232.022919,205.983078 229.998520,210.013412 228.063934,214.381744 
	C226.705002,214.546005 225.256256,214.372299 223.450180,213.732849 
	C223.127945,212.889816 223.163025,212.512543 223.198105,212.135254 
z"/>
<path fill="#C8D3E0" opacity="1.000000" stroke="none" 
	d="
M106.089073,219.419312 
	C112.494743,218.707718 119.090240,218.396622 125.680336,217.996567 
	C131.174606,217.663025 131.953781,218.320831 131.419952,223.674683 
	C130.107849,217.725189 125.605614,220.461090 122.067856,220.401382 
	C116.802101,220.312531 111.540138,219.999130 106.089073,219.419312 
z"/>
<path fill="#CDE0F4" opacity="1.000000" stroke="none" 
	d="
M175.003250,235.010330 
	C182.848312,234.978271 183.694153,233.918686 182.271545,225.281158 
	C182.508026,221.844879 183.010651,218.699295 183.790161,215.288361 
	C184.373535,219.218918 184.609039,223.421509 185.003571,227.609146 
	C185.557953,233.493561 184.122696,237.732224 176.861450,236.979004 
	C175.561768,236.844177 174.234283,236.977432 172.472260,237.027710 
	C172.016907,236.884232 172.008957,236.699966 172.329224,236.251587 
	C173.439377,235.661758 174.221313,235.336044 175.003250,235.010330 
z"/>
<path fill="#FACA19" opacity="1.000000" stroke="none" 
	d="
M224.513336,104.035507 
	C222.900238,103.903999 221.662308,103.746056 220.129074,103.355515 
	C222.328308,101.415619 225.103897,100.001755 227.257812,97.938805 
	C231.492905,93.882568 231.640198,97.106567 232.032745,100.699043 
	C229.661774,102.066528 227.275131,103.037796 224.513336,104.035507 
z"/>
<path fill="#25272B" opacity="1.000000" stroke="none" 
	d="
M171.973297,304.132233 
	C169.702499,302.950043 167.799103,301.856873 165.558868,300.570251 
	C172.287491,295.965363 172.287491,295.965363 173.616394,302.778625 
	C175.278214,302.124329 176.874344,301.495911 178.479858,300.863800 
	C176.981735,304.993164 176.740433,305.124481 171.973297,304.132233 
z"/>
<path fill="#C6D8EA" opacity="1.000000" stroke="none" 
	d="
M169.437790,287.005249 
	C168.663895,278.679016 168.323151,270.310455 168.006973,261.197388 
	C168.287323,259.976379 168.543106,259.499878 168.798874,259.023407 
	C169.534897,266.910614 170.343887,274.792297 170.938354,282.690155 
	C171.042953,284.079773 170.249603,285.536957 169.437790,287.005249 
z"/>
<path fill="#E3F3FA" opacity="1.000000" stroke="none" 
	d="
M118.443954,84.958496 
	C119.321289,84.987434 119.764320,85.045921 120.552078,85.304367 
	C120.896805,85.504333 120.898277,85.820702 120.898277,85.820702 
	C120.870636,85.989250 120.842987,86.157799 120.400818,86.623810 
	C117.652588,87.271835 115.318901,87.622391 112.528137,87.972496 
	C107.378029,88.439957 102.685005,88.907860 97.989769,89.067024 
	C98.002144,88.552971 98.016731,88.347664 98.031311,88.142349 
	C100.459213,87.430008 102.845345,86.417252 105.324371,86.072517 
	C109.521896,85.488808 113.778107,85.327141 118.443954,84.958496 
z"/>
<path fill="#CDE0F4" opacity="1.000000" stroke="none" 
	d="
M187.408630,214.916977 
	C189.972488,213.409317 192.983612,212.068130 195.886398,210.523376 
	C199.767853,208.457809 203.565308,206.234375 207.729889,204.317230 
	C208.060165,204.736404 208.059372,204.917038 208.058563,205.097687 
	C201.308258,208.396057 194.557953,211.694427 187.408630,214.916977 
z"/>
<path fill="#BECBD8" opacity="1.000000" stroke="none" 
	d="
M97.625854,88.204353 
	C98.016731,88.347664 98.002144,88.552971 97.998520,89.451027 
	C98.009651,91.762001 98.009819,93.380241 98.008179,95.398750 
	C98.007675,96.866516 98.008987,97.933998 98.010300,99.001488 
	C98.002014,102.398705 97.993736,105.795914 97.973495,109.659363 
	C97.335762,109.256897 96.196526,108.404907 96.167618,107.516777 
	C95.980759,101.777740 95.995941,96.030334 96.065788,90.287132 
	C96.074036,89.608963 96.817657,88.939728 97.625854,88.204353 
z"/>
<path fill="#594741" opacity="1.000000" stroke="none" 
	d="
M69.983871,272.549835 
	C69.985062,275.741882 69.988556,278.480652 69.974594,281.682159 
	C69.645401,281.421448 69.083885,280.706329 69.059242,279.973206 
	C68.666824,268.299866 68.343086,256.624268 68.055389,244.484863 
	C68.606995,247.858139 69.323914,251.682724 69.554886,255.536423 
	C69.885056,261.045288 69.859688,266.575470 69.983871,272.549835 
z"/>
<path fill="#594741" opacity="1.000000" stroke="none" 
	d="
M67.128494,202.509216 
	C67.451393,204.304077 67.926758,206.558304 67.943512,208.815918 
	C68.026009,219.936111 67.986900,231.057205 67.973938,242.659088 
	C67.639061,241.574570 67.052940,240.010208 67.045517,238.443130 
	C66.989555,226.619110 67.047310,214.794540 67.128494,202.509216 
z"/>
<path fill="#BECBD8" opacity="1.000000" stroke="none" 
	d="
M104.945190,198.954681 
	C105.288948,205.383316 105.632698,211.811935 105.953461,218.676025 
	C104.971001,216.656540 103.398300,214.253815 103.183922,211.735458 
	C102.778595,206.974030 103.153809,202.146149 103.604126,197.412567 
	C104.317444,197.971069 104.631317,198.462875 104.945190,198.954681 
z"/>
<path fill="#D7C357" opacity="1.000000" stroke="none" 
	d="
M243.937454,92.959930 
	C246.680542,89.333015 249.423645,85.706100 252.484100,82.013504 
	C251.168976,88.239296 247.463058,92.912514 241.536087,95.810272 
	C242.165314,94.698540 243.051376,93.829231 243.937454,92.959930 
z"/>
<path fill="#D1A972" opacity="1.000000" stroke="none" 
	d="
M70.747223,165.110779 
	C67.922501,168.377747 64.481300,171.489624 66.017303,176.758499 
	C66.460869,178.280029 67.062027,179.755630 67.777321,181.579071 
	C67.963699,181.905869 67.919540,182.389725 67.942764,182.631470 
	C63.122410,180.527344 62.229424,170.422852 66.626373,167.160278 
	C67.769035,166.312393 69.119476,165.744492 70.747223,165.110779 
z"/>
<path fill="#CDE0F4" opacity="1.000000" stroke="none" 
	d="
M218.994385,185.565735 
	C218.451263,185.207352 217.368607,184.411957 217.379089,183.631241 
	C217.449875,178.355576 217.751999,173.083008 218.011017,167.334259 
	C218.680420,167.417435 219.886414,167.995224 219.868118,168.531219 
	C219.679047,174.069855 219.292328,179.601761 218.994385,185.565735 
z"/>
<path fill="#C8D3E0" opacity="1.000000" stroke="none" 
	d="
M107.427200,164.912262 
	C107.372787,158.659195 107.683205,152.216492 108.005653,145.345337 
	C107.942459,151.518799 107.867241,158.120728 107.427200,164.912262 
z"/>
<path fill="#BECBD8" opacity="1.000000" stroke="none" 
	d="
M164.042755,231.538452 
	C164.563293,233.965286 165.066254,235.933456 165.283813,237.953156 
	C161.420319,232.779434 161.911163,226.835587 161.948303,220.506226 
	C162.608078,221.603973 163.644104,223.102386 163.924606,224.730911 
	C164.279572,226.791840 164.019791,228.958633 164.042755,231.538452 
z"/>
<path fill="#FACA19" opacity="1.000000" stroke="none" 
	d="
M243.568604,92.961533 
	C243.051376,93.829231 242.165314,94.698540 241.171967,95.867218 
	C239.621796,97.110443 238.178909,98.054283 236.394531,99.046112 
	C236.173981,98.454231 236.329269,97.818680 236.410492,97.173805 
	C237.208542,90.837494 237.205048,90.837051 243.568604,92.961533 
z"/>
<path fill="#CDE0F4" opacity="1.000000" stroke="none" 
	d="
M209.909576,127.016403 
	C209.715912,120.562958 209.522232,114.109505 209.561081,107.354935 
	C210.472580,113.567650 211.151566,120.081482 211.170105,126.813950 
	C210.309616,127.027184 210.109604,127.021797 209.909576,127.016403 
z"/>
<path fill="#CDE0F4" opacity="1.000000" stroke="none" 
	d="
M215.919067,155.640137 
	C212.255203,151.897537 208.659592,147.795593 205.292908,143.345337 
	C205.697388,142.985504 205.872925,142.973999 206.048462,142.962479 
	C209.361404,147.068588 212.674347,151.174698 215.919067,155.640137 
z"/>
<path fill="#C8D3E0" opacity="1.000000" stroke="none" 
	d="
M206.013321,142.588348 
	C205.872925,142.973999 205.697388,142.985504 205.257965,142.998657 
	C205.768311,140.142639 206.516006,137.277451 207.325134,134.429688 
	C207.980316,132.123795 208.709412,129.838913 209.657654,127.280563 
	C210.109604,127.021797 210.309616,127.027184 210.809326,127.046570 
	C209.398727,132.111771 207.688461,137.162994 206.013321,142.588348 
z"/>
<path fill="#CCBC99" opacity="1.000000" stroke="none" 
	d="
M234.415298,201.921921 
	C234.219650,201.400833 234.391983,200.848923 234.819534,200.144775 
	C238.894669,199.999649 242.724960,199.851730 246.528381,200.105942 
	C247.709351,200.184875 248.817413,201.354553 249.958862,202.024872 
	C248.918167,202.996872 247.877457,203.968857 246.453888,204.965027 
	C248.227173,202.866470 248.302399,201.168411 244.826950,201.130997 
	C241.482178,201.094971 238.131409,201.615250 234.415298,201.921921 
z"/>
<path fill="#C8D3E0" opacity="1.000000" stroke="none" 
	d="
M154.618286,238.061890 
	C154.349319,242.866638 149.979294,242.651993 146.719345,244.026413 
	C145.262787,244.640518 143.967072,245.636139 142.226471,246.511627 
	C141.681229,246.296783 141.449249,246.097000 141.158646,245.965302 
	C141.067291,241.917404 144.764145,243.195496 146.721649,242.070236 
	C149.175171,240.659805 151.761154,239.479752 154.618286,238.061890 
z"/>
<path fill="#F0F4F4" opacity="1.000000" stroke="none" 
	d="
M139.583313,63.963760 
	C139.813995,64.467293 139.599075,64.706093 139.093796,64.992531 
	C134.464691,65.092255 130.055054,65.080566 125.272934,65.022659 
	C126.682060,64.331581 128.442062,63.230633 130.250122,63.145058 
	C133.219894,63.004498 136.220825,63.522488 139.583313,63.963760 
z"/>
<path fill="#C8D3E0" opacity="1.000000" stroke="none" 
	d="
M168.871307,258.602356 
	C168.543106,259.499878 168.287323,259.976379 168.010895,260.732422 
	C167.039948,257.593658 165.962830,254.200745 165.267685,250.731293 
	C165.155533,250.171478 166.743530,249.270996 167.783386,248.777527 
	C168.328690,252.078476 168.636215,255.129883 168.871307,258.602356 
z"/>
<path fill="#CDE0F4" opacity="1.000000" stroke="none" 
	d="
M105.055260,198.591522 
	C104.631317,198.462875 104.317444,197.971069 103.975143,197.174759 
	C107.040817,195.685547 110.134918,194.500839 113.855026,193.137482 
	C114.678101,192.960739 114.875175,192.962662 115.072258,192.964600 
	C113.258049,194.300842 111.542336,195.811264 109.595131,196.912292 
	C108.288292,197.651215 106.653427,197.810013 105.055260,198.591522 
z"/>
<path fill="#594741" opacity="1.000000" stroke="none" 
	d="
M82.919662,304.527557 
	C82.238770,298.910980 81.610641,292.838379 81.008942,286.292664 
	C81.681061,291.903564 82.326744,297.987549 82.919662,304.527557 
z"/>
<path fill="#D7C357" opacity="1.000000" stroke="none" 
	d="
M187.694397,37.109474 
	C187.405716,40.434895 187.092422,44.072239 182.373672,45.056519 
	C183.789841,42.423981 185.582291,39.826847 187.694397,37.109474 
z"/>
<path fill="#594741" opacity="1.000000" stroke="none" 
	d="
M80.050232,271.524536 
	C79.700951,266.890747 79.341698,261.790344 79.007904,256.256409 
	C79.368988,260.901215 79.704628,265.979584 80.050232,271.524536 
z"/>
<path fill="#93A5B9" opacity="1.000000" stroke="none" 
	d="
M135.597092,249.985535 
	C132.861603,251.605774 129.755524,253.289581 126.261703,254.973526 
	C128.991470,253.332138 132.108978,251.690598 135.597092,249.985535 
z"/>
<path fill="#594741" opacity="1.000000" stroke="none" 
	d="
M80.936310,284.540466 
	C80.585724,283.587708 80.284538,282.176056 79.964737,280.383850 
	C79.958466,277.617157 79.970802,275.230927 80.012863,272.397522 
	C80.356956,275.994049 80.671326,280.037781 80.936310,284.540466 
z"/>
<path fill="#D7C357" opacity="1.000000" stroke="none" 
	d="
M242.906677,32.663734 
	C241.062592,32.203785 239.090378,31.412458 237.073563,30.263365 
	C238.945496,30.714520 240.862015,31.523438 242.906677,32.663734 
z"/>
<path fill="#93A5B9" opacity="1.000000" stroke="none" 
	d="
M208.389435,205.175049 
	C208.059372,204.917038 208.060165,204.736404 208.093552,204.286804 
	C208.511642,203.993286 208.897141,203.968719 209.568054,203.901031 
	C211.202499,205.071747 212.551529,206.285599 213.923859,207.807953 
	C212.204865,207.161774 210.462570,206.207108 208.389435,205.175049 
z"/>
<path fill="#D7C357" opacity="1.000000" stroke="none" 
	d="
M196.671814,30.042425 
	C195.551102,31.061148 194.080551,32.124905 192.217560,33.169579 
	C193.324081,32.129482 194.823044,31.108471 196.671814,30.042425 
z"/>
<path fill="#C8D3E0" opacity="1.000000" stroke="none" 
	d="
M159.821899,234.629410 
	C158.747086,235.622253 157.647324,236.264526 156.219513,236.920776 
	C156.937820,235.673798 155.608536,230.919434 159.821899,234.629410 
z"/>
<path fill="#C8D3E0" opacity="1.000000" stroke="none" 
	d="
M107.920807,143.597870 
	C107.237228,142.544632 106.624046,141.086456 106.020599,139.257996 
	C106.683960,140.322800 107.337585,141.757858 107.920807,143.597870 
z"/>
<path fill="#C8D3E0" opacity="1.000000" stroke="none" 
	d="
M98.402985,171.061066 
	C99.172729,170.096130 100.268806,169.063385 101.742432,168.051376 
	C100.989754,169.045822 99.859543,170.019547 98.402985,171.061066 
z"/>
<path fill="#93A5B9" opacity="1.000000" stroke="none" 
	d="
M232.021759,198.573303 
	C230.823624,198.120972 229.453705,197.381729 228.062653,196.270935 
	C229.311005,196.695053 230.580475,197.490707 232.021759,198.573303 
z"/>
<path fill="#CDE0F4" opacity="1.000000" stroke="none" 
	d="
M114.128433,187.416336 
	C114.588005,187.017273 114.988457,187.010620 115.688889,187.005127 
	C115.992577,188.074844 115.996284,189.143387 115.701157,190.605499 
	C115.005539,190.991119 114.608757,190.983170 114.211983,190.975204 
	C114.164429,189.919724 114.116875,188.864227 114.128433,187.416336 
z"/>
<path fill="#C6D8EA" opacity="1.000000" stroke="none" 
	d="
M104.647247,138.981506 
	C104.210953,139.935593 103.436890,140.955200 102.282639,141.962280 
	C102.704788,140.982178 103.507133,140.014618 104.647247,138.981506 
z"/>
<path fill="#C6D8EA" opacity="1.000000" stroke="none" 
	d="
M98.664268,146.030777 
	C98.192757,146.930511 97.432808,147.954697 96.291672,148.966766 
	C96.732269,148.021515 97.554054,147.088364 98.664268,146.030777 
z"/>
<path fill="#93A5B9" opacity="1.000000" stroke="none" 
	d="
M139.614777,247.945496 
	C138.863815,248.580307 137.780304,249.288391 136.312195,249.979065 
	C137.045807,249.314026 138.164032,248.666382 139.614777,247.945496 
z"/>
<path fill="#C6D8EA" opacity="1.000000" stroke="none" 
	d="
M95.665878,149.033401 
	C95.192696,149.933685 94.430336,150.956116 93.286545,151.963715 
	C93.728989,151.017761 94.552849,150.086655 95.665878,149.033401 
z"/>
<path fill="#D7C357" opacity="1.000000" stroke="none" 
	d="
M190.843445,33.969849 
	C190.348679,34.913689 189.554855,36.005692 188.375198,37.056015 
	C188.841049,36.048893 189.692734,35.083450 190.843445,33.969849 
z"/>
<path fill="#C6D8EA" opacity="1.000000" stroke="none" 
	d="
M89.616257,154.937958 
	C89.173210,155.574631 88.410622,156.280685 87.280792,156.969772 
	C87.707939,156.304306 88.502327,155.655807 89.616257,154.937958 
z"/>
<path fill="#C6D8EA" opacity="1.000000" stroke="none" 
	d="
M100.666832,143.056107 
	C100.512947,143.905441 100.061790,144.887100 99.256310,145.912903 
	C99.391182,145.034180 99.880379,144.111313 100.666832,143.056107 
z"/>
<path fill="#C8D3E0" opacity="1.000000" stroke="none" 
	d="
M102.389862,168.062912 
	C102.852226,167.422455 103.638550,166.721436 104.797852,166.032928 
	C104.351822,166.697754 103.532829,167.350052 102.389862,168.062912 
z"/>
<path fill="#C6D8EA" opacity="1.000000" stroke="none" 
	d="
M85.267303,159.808426 
	C84.545876,159.992828 84.060165,159.985855 83.209763,159.972870 
	C83.661537,159.313324 84.478012,158.659805 85.621078,157.950623 
	C85.799461,158.468979 85.651245,159.043030 85.267303,159.808426 
z"/>
<path fill="#594741" opacity="1.000000" stroke="none" 
	d="
M83.899368,310.602661 
	C83.562004,309.547882 83.272713,308.104706 83.001083,306.268677 
	C83.328300,307.321960 83.637871,308.768127 83.899368,310.602661 
z"/>
<path fill="#BECBD8" opacity="1.000000" stroke="none" 
	d="
M114.113388,191.295975 
	C114.608757,190.983170 115.005539,190.991119 115.699875,191.006256 
	C115.839851,191.550110 115.682274,192.086807 115.298477,192.794037 
	C114.875175,192.962662 114.678101,192.960739 114.185410,192.955826 
	C113.931450,192.507477 113.973122,192.062103 114.113388,191.295975 
z"/>
<path fill="#C8D3E0" opacity="1.000000" stroke="none" 
	d="
M95.970779,171.024246 
	C96.448174,171.018707 96.925575,171.013168 97.760300,171.042892 
	C97.617218,171.677032 97.116798,172.275909 96.265182,172.869415 
	C95.913979,172.864059 95.747879,172.644089 95.820480,172.380295 
	C95.918983,171.752411 95.944878,171.388336 95.970779,171.024246 
z"/>
<path fill="#93A5B9" opacity="1.000000" stroke="none" 
	d="
M141.043121,246.240784 
	C141.449249,246.097000 141.681229,246.296783 141.972839,246.764893 
	C142.077026,247.139145 142.062988,247.313156 142.031616,247.748566 
	C141.541519,248.007050 141.068741,248.004089 140.242310,247.969849 
	C140.234985,247.464478 140.581299,246.990372 141.043121,246.240784 
z"/>
<path fill="#FACA19" opacity="1.000000" stroke="none" 
	d="
M234.292755,100.858109 
	C234.481400,100.256653 234.970398,99.671158 235.774597,99.069366 
	C235.590897,99.660065 235.091995,100.267075 234.292755,100.858109 
z"/>
<path fill="#93A5B9" opacity="1.000000" stroke="none" 
	d="
M222.801727,212.084717 
	C223.163025,212.512543 223.127945,212.889816 223.115234,213.552216 
	C222.461502,213.430405 221.785416,213.023499 220.959808,212.331787 
	C221.341995,212.042709 221.873672,212.038452 222.801727,212.084717 
z"/>
<path fill="#CDE0F4" opacity="1.000000" stroke="none" 
	d="
M171.241974,237.912903 
	C171.180542,237.703110 171.412430,237.473297 171.883179,237.139999 
	C171.891083,237.286301 171.695511,237.571747 171.241974,237.912903 
z"/>
<path fill="#93A5B9" opacity="1.000000" stroke="none" 
	d="
M219.930099,186.755844 
	C219.908646,187.025711 219.498718,187.062149 219.294189,187.068939 
	C219.078323,186.877579 219.067001,186.679459 219.074982,186.184174 
	C219.380035,186.086685 219.665787,186.286331 219.930099,186.755844 
z"/>
<path fill="#C8C9C9" opacity="1.000000" stroke="none" 
	d="
M95.223297,173.883881 
	C94.962151,173.831528 94.992355,173.416092 94.996353,173.207840 
	C95.000343,172.999588 95.000000,173.000000 95.195999,172.931061 
	C95.391991,172.862106 95.747879,172.644089 95.747879,172.644089 
	C95.747879,172.644089 95.913979,172.864059 95.989227,172.979736 
	C95.871124,173.375702 95.677780,173.655975 95.223297,173.883881 
z"/>
<path fill="#93A5B9" opacity="1.000000" stroke="none" 
	d="
M124.742920,255.970566 
	C124.891762,256.170227 124.748688,256.440125 124.360924,256.813782 
	C124.285637,256.655975 124.397217,256.363708 124.742920,255.970566 
z"/>
<path fill="#93A5B9" opacity="1.000000" stroke="none" 
	d="
M221.007446,188.727478 
	C220.819168,188.759064 220.534576,188.528061 220.145844,188.037506 
	C220.331497,188.006943 220.621323,188.235916 221.007446,188.727478 
z"/>
<path fill="#93A5B9" opacity="1.000000" stroke="none" 
	d="
M222.988403,190.735107 
	C222.803528,190.783920 222.523987,190.580368 222.127533,190.140289 
	C222.304977,190.096756 222.599350,190.289749 222.988403,190.735107 
z"/>
<path fill="#93A5B9" opacity="1.000000" stroke="none" 
	d="
M223.967285,191.744812 
	C223.791290,191.786774 223.516159,191.583939 223.125488,191.148270 
	C223.295990,191.110306 223.582062,191.305161 223.967285,191.744812 
z"/>
<path fill="#93A5B9" opacity="1.000000" stroke="none" 
	d="
M224.976318,192.739380 
	C224.788559,192.792801 224.512726,192.595383 224.124161,192.166077 
	C224.303711,192.118973 224.595963,192.303772 224.976318,192.739380 
z"/>
<path fill="#93A5B9" opacity="1.000000" stroke="none" 
	d="
M225.985474,193.742645 
	C225.807434,193.790985 225.529419,193.592224 225.129517,193.164337 
	C225.300247,193.121964 225.592880,193.308762 225.985474,193.742645 
z"/>
<path fill="#93A5B9" opacity="1.000000" stroke="none" 
	d="
M226.995972,194.733948 
	C226.807358,194.787643 226.525909,194.587112 226.127182,194.151276 
	C226.307648,194.103882 226.605408,194.291794 226.995972,194.733948 
z"/>
<path fill="#93A5B9" opacity="1.000000" stroke="none" 
	d="
M227.994720,195.739227 
	C227.814911,195.785767 227.533401,195.582367 227.130219,195.144730 
	C227.303360,195.103439 227.598175,195.296371 227.994720,195.739227 
z"/>
<path fill="#C7C9C9" opacity="1.000000" stroke="none" 
	d="
M150.680878,82.021500 
	C150.745560,82.242508 150.556305,82.513023 150.122101,82.851120 
	C150.060410,82.636131 150.243668,82.353569 150.680878,82.021500 
z"/>
<path fill="#C6D8EA" opacity="1.000000" stroke="none" 
	d="
M86.727570,156.996552 
	C86.775146,157.183792 86.566505,157.463608 86.119431,157.861496 
	C86.077774,157.682755 86.274559,157.385956 86.727570,156.996552 
z"/>
<path fill="#C6D8EA" opacity="1.000000" stroke="none" 
	d="
M90.706451,153.963226 
	C90.763527,154.161789 90.560951,154.454437 90.108040,154.855164 
	C90.054070,154.661240 90.250435,154.359268 90.706451,153.963226 
z"/>
<path fill="#C6D8EA" opacity="1.000000" stroke="none" 
	d="
M91.721161,152.982895 
	C91.770988,153.174515 91.563667,153.460876 91.110825,153.859192 
	C91.064873,153.673294 91.264442,153.375473 91.721161,152.982895 
z"/>
<path fill="#C6D8EA" opacity="1.000000" stroke="none" 
	d="
M92.721863,151.987366 
	C92.776169,152.180618 92.572632,152.465240 92.128212,152.864517 
	C92.079559,152.679031 92.271790,152.378876 92.721863,151.987366 
z"/>
<path fill="#C8D3E0" opacity="1.000000" stroke="none" 
	d="
M155.713196,236.979034 
	C155.770905,237.167542 155.574448,237.451447 155.144653,237.856262 
	C155.093903,237.676270 155.276459,237.375351 155.713196,236.979034 
z"/>
<path fill="#93A5B9" opacity="1.000000" stroke="none" 
	d="
M213.985580,208.277405 
	C214.170898,208.225815 214.458801,208.426376 214.865814,208.865616 
	C214.686005,208.912704 214.387070,208.721130 213.985580,208.277405 
z"/>
<path fill="#93A5B9" opacity="1.000000" stroke="none" 
	d="
M214.998535,209.255463 
	C215.194748,209.103455 215.464233,209.243851 215.841064,209.628983 
	C215.688950,209.702240 215.396744,209.593628 214.998535,209.255463 
z"/>
<path fill="#93A5B9" opacity="1.000000" stroke="none" 
	d="
M216.975830,210.253174 
	C217.170059,210.110336 217.449158,210.256348 217.839233,210.652405 
	C217.684814,210.722900 217.388290,210.602753 216.975830,210.253174 
z"/>
<path fill="#93A5B9" opacity="1.000000" stroke="none" 
	d="
M218.931061,211.277130 
	C219.107101,211.178314 219.408188,211.320053 219.854218,211.667450 
	C219.684799,211.754623 219.370453,211.636139 218.931061,211.277130 
z"/>
<path fill="#BECBD8" opacity="1.000000" stroke="none" 
	d="
M159.265839,218.873550 
	C159.207047,218.464996 159.461090,218.373260 159.885559,218.668823 
	C159.984543,218.795853 159.507217,218.930130 159.265839,218.873550 
z"/>
<path fill="#BECBD8" opacity="1.000000" stroke="none" 
	d="
M161.009766,219.269562 
	C161.202820,219.218491 161.477310,219.422760 161.859695,219.864532 
	C161.675461,219.909653 161.383331,219.717285 161.009766,219.269562 
z"/>
<path fill="#C6D8EA" opacity="1.000000" stroke="none" 
	d="
M101.728317,141.988770 
	C101.779221,142.170441 101.578094,142.453018 101.145752,142.861267 
	C101.101776,142.687866 101.289032,142.388779 101.728317,141.988770 
z"/>
<path fill="#93A5B9" opacity="1.000000" stroke="none" 
	d="
M222.004517,189.729187 
	C221.811813,189.782700 221.528366,189.578232 221.129608,189.133636 
	C221.314133,189.086105 221.613953,189.278671 222.004517,189.729187 
z"/>
<path fill="#C8D3E0" opacity="1.000000" stroke="none" 
	d="
M106.264931,165.885864 
	C106.141464,165.561371 106.363701,165.341919 106.889046,165.122375 
	C106.920013,165.332520 106.726181,165.622070 106.264931,165.885864 
z"/>
<path fill="#000000" opacity="1.000000" stroke="none" 
	d="
M143.058548,166.785110 
	C143.058548,166.785110 143.072815,166.369934 143.056274,165.943176 
	C143.039719,165.516403 143.157913,165.049820 143.157913,165.049820 
	C143.157913,165.049820 143.600021,165.022827 144.227936,164.987701 
	C147.885895,164.619034 150.921051,164.325623 153.944305,163.939041 
	C156.284760,163.639786 158.610336,163.223953 160.942520,162.859955 
	C165.715118,162.907776 170.488556,162.914474 175.260086,163.013992 
	C181.036819,163.134460 184.149811,167.020996 186.960831,172.095428 
	C188.434738,177.485550 185.806259,181.106949 183.820755,184.899124 
	C183.820755,184.899124 183.913086,184.914124 183.565445,184.948166 
	C181.441559,186.306793 179.665329,187.631393 177.441528,188.982269 
	C170.155594,189.409714 163.321320,189.927185 156.477280,190.168427 
	C152.362534,190.313446 148.232605,190.027847 144.109497,189.935776 
	C143.747330,186.926300 143.385162,183.916809 143.435516,180.272827 
	C143.620605,175.774521 143.393188,171.910690 143.165771,168.046875 
	C143.165756,168.046875 143.072937,168.034760 143.320374,167.968323 
	C143.398056,167.529633 143.228302,167.157379 143.058548,166.785110 
z"/>
<path fill="#000000" opacity="1.000000" stroke="none" 
	d="
M155.942291,135.928207 
	C151.394928,136.194183 146.847549,136.460159 142.123978,135.936249 
	C141.245300,130.433304 140.542831,125.720222 139.914276,120.561890 
	C139.973190,109.994659 139.974258,110.078232 150.077209,109.949608 
	C153.756851,109.902763 157.430115,109.353058 161.106277,109.032776 
	C163.748642,109.023270 166.390991,109.013756 169.642670,109.332062 
	C171.810150,110.152130 173.368286,110.644379 174.926437,111.136627 
	C174.926437,111.136627 174.940979,111.048141 174.996002,111.305618 
	C175.355347,111.746414 175.659637,111.929741 175.963943,112.113060 
	C175.963943,112.113060 175.969284,112.029465 176.020782,112.287521 
	C176.372787,112.728905 176.673325,112.912231 176.973846,113.095558 
	C176.973846,113.095558 176.979843,113.021538 177.031952,113.278137 
	C177.380936,113.722656 177.677841,113.910583 177.974731,114.098511 
	C177.974731,114.098511 177.979126,114.024452 178.007187,114.425919 
	C178.654373,118.208435 179.273499,121.589493 179.892609,124.970551 
	C178.930740,126.713470 177.968857,128.456390 176.611786,130.591644 
	C175.401093,131.637604 174.585571,132.291199 173.770065,132.944794 
	C173.770065,132.944794 173.363403,132.926086 172.773438,132.983917 
	C171.128220,133.364212 170.093323,133.814499 169.014084,133.986664 
	C164.664261,134.680511 160.300751,135.288513 155.942291,135.928207 
z"/>
<path fill="#C5C7C8" opacity="1.000000" stroke="none" 
	d="
M98.473473,99.000992 
	C98.008987,97.933998 98.007675,96.866516 98.442772,95.399170 
	C100.523895,95.144341 102.264931,94.994522 103.793884,95.493942 
	C107.301750,96.639786 109.903961,96.206749 110.770775,92.419083 
	C113.883522,92.419083 116.634506,92.419083 119.274010,92.419083 
	C117.008118,90.817116 114.996666,89.395035 112.985207,87.972946 
	C115.318901,87.622391 117.652588,87.271835 120.391914,86.879845 
	C121.520226,89.565666 122.242905,92.292923 122.587250,93.592430 
	C118.429092,95.424965 115.439835,97.372025 112.191704,98.018585 
	C107.879082,98.877045 103.364471,98.720764 98.473473,99.000992 
z"/>
<path fill="#E3F3FA" opacity="1.000000" stroke="none" 
	d="
M143.901611,190.159088 
	C148.232605,190.027847 152.362534,190.313446 156.477280,190.168427 
	C163.321320,189.927185 170.155594,189.409714 177.833130,188.999054 
	C179.196106,189.026505 179.719925,189.063446 180.243759,189.100403 
	C176.644211,190.020340 173.091034,191.379822 169.435120,191.765472 
	C162.577148,192.488937 155.661697,192.836792 148.765656,192.908783 
	C147.084000,192.926346 145.384842,191.269440 143.901611,190.159088 
z"/>
<path fill="#C6D8EA" opacity="1.000000" stroke="none" 
	d="
M160.642853,109.016800 
	C157.430115,109.353058 153.756851,109.902763 150.077209,109.949608 
	C139.974258,110.078232 139.973190,109.994659 139.687500,120.561363 
	C139.386810,121.006088 138.933334,121.013519 138.933334,121.013519 
	C135.850159,109.626656 139.528687,108.166534 149.347198,108.118355 
	C152.956406,108.100639 156.568604,108.688950 160.642853,109.016800 
z"/>
<path fill="#DCDDDD" opacity="1.000000" stroke="none" 
	d="
M153.430420,83.972214 
	C152.967896,83.522308 152.977783,83.087196 152.992035,82.325302 
	C158.995590,81.990135 164.994781,81.981750 171.452362,81.971481 
	C172.257904,82.424744 172.605057,82.879890 172.998703,83.627411 
	C166.664413,83.942192 160.283646,83.964607 153.430420,83.972214 
z"/>
<path fill="#DCEDF7" opacity="1.000000" stroke="none" 
	d="
M156.241211,136.217133 
	C160.300751,135.288513 164.664261,134.680511 169.014084,133.986664 
	C170.093323,133.814499 171.128220,133.364212 172.591034,133.074280 
	C170.588303,134.370193 168.295258,136.246246 165.736877,136.735931 
	C162.793777,137.299255 159.615982,136.636383 156.241211,136.217133 
z"/>
<path fill="#DCDDDD" opacity="1.000000" stroke="none" 
	d="
M121.370560,85.878967 
	C120.898277,85.820702 120.896805,85.504333 120.884453,85.348907 
	C127.296677,84.469955 133.721252,83.746429 140.564651,83.006485 
	C141.307846,83.452431 141.632202,83.914787 141.995209,84.668350 
	C135.303513,85.285454 128.573181,85.611343 121.370560,85.878967 
z"/>
<path fill="#CDE0F4" opacity="1.000000" stroke="none" 
	d="
M160.638489,162.585693 
	C158.610336,163.223953 156.284760,163.639786 153.944305,163.939041 
	C150.921051,164.325623 147.885895,164.619034 144.431702,164.900940 
	C145.725357,163.918533 147.383118,162.359421 149.173538,162.188293 
	C152.856293,161.836319 156.609970,162.226608 160.638489,162.585693 
z"/>
<path fill="#CDE0F4" opacity="1.000000" stroke="none" 
	d="
M138.946350,121.474571 
	C138.933334,121.013519 139.386810,121.006088 139.613586,121.006622 
	C140.542831,125.720222 141.245300,130.433304 141.896240,135.566254 
	C140.896057,134.112213 139.464798,132.323364 139.115936,130.343765 
	C138.635330,127.616554 138.972519,124.745216 138.946350,121.474571 
z"/>
<path fill="#DCEDF7" opacity="1.000000" stroke="none" 
	d="
M184.193665,184.940186 
	C185.806259,181.106949 188.434738,177.485550 187.100159,172.420502 
	C190.522507,175.679047 189.409698,181.219101 184.193665,184.940186 
z"/>
<path fill="#CDE0F4" opacity="1.000000" stroke="none" 
	d="
M142.816849,168.151596 
	C143.393188,171.910690 143.620605,175.774521 143.489136,179.861694 
	C142.909454,176.142151 142.688690,172.199234 142.816849,168.151596 
z"/>
<path fill="#C8D3E0" opacity="1.000000" stroke="none" 
	d="
M180.229645,124.815613 
	C179.273499,121.589493 178.654373,118.208435 177.971680,114.436691 
	C181.620941,116.518471 182.676926,120.734627 180.229645,124.815613 
z"/>
<path fill="#DCEDF7" opacity="1.000000" stroke="none" 
	d="
M180.572891,189.038055 
	C179.719925,189.063446 179.196106,189.026505 178.280670,188.972763 
	C179.665329,187.631393 181.441559,186.306793 183.558167,184.901978 
	C182.899704,186.206390 181.900864,187.591049 180.572891,189.038055 
z"/>
<path fill="#C8D3E0" opacity="1.000000" stroke="none" 
	d="
M174.882019,110.753998 
	C173.368286,110.644379 171.810150,110.152130 170.083313,109.341354 
	C171.555618,109.472336 173.196609,109.921852 174.882019,110.753998 
z"/>
<path fill="#DCEDF7" opacity="1.000000" stroke="none" 
	d="
M174.120438,132.971039 
	C174.585571,132.291199 175.401093,131.637604 176.597595,130.945587 
	C176.142654,131.603867 175.306732,132.300568 174.120438,132.971039 
z"/>
<path fill="#C8D3E0" opacity="1.000000" stroke="none" 
	d="
M177.857452,113.864655 
	C177.677841,113.910583 177.380936,113.722656 176.994827,113.279068 
	C177.183807,113.225868 177.461990,113.428329 177.857452,113.864655 
z"/>
<path fill="#C8D3E0" opacity="1.000000" stroke="none" 
	d="
M176.859756,112.857452 
	C176.673325,112.912231 176.372787,112.728905 175.978958,112.290009 
	C176.172318,112.229401 176.459000,112.424370 176.859756,112.857452 
z"/>
<path fill="#C8D3E0" opacity="1.000000" stroke="none" 
	d="
M175.853165,111.867905 
	C175.659637,111.929741 175.355347,111.746414 174.951202,111.307533 
	C175.148376,111.242233 175.445389,111.432487 175.853165,111.867905 
z"/>
<path fill="#CDE0F4" opacity="1.000000" stroke="none" 
	d="
M142.978378,165.125549 
	C143.157913,165.049820 143.039719,165.516403 142.980652,165.749695 
	C142.776947,165.797150 142.632309,165.611298 142.487671,165.425430 
	C142.591400,165.350708 142.695129,165.275986 142.978378,165.125549 
z"/>
<path fill="#CDE0F4" opacity="1.000000" stroke="none" 
	d="
M143.034393,167.121338 
	C143.228302,167.157379 143.398056,167.529633 143.323425,168.015045 
	C143.056107,167.904648 143.033157,167.681107 143.034393,167.121338 
z"/>
<path fill="#FAC411" opacity="1.000000" stroke="none" 
	d="
M192.528488,46.426208 
	C191.663757,51.194244 190.981750,55.700912 190.299728,60.207581 
	C190.014801,60.343426 189.729889,60.479271 189.444962,60.615120 
	C188.152298,56.369102 186.859619,52.123089 185.760330,48.512268 
	C187.432968,47.356346 188.892258,46.171436 190.528198,45.329929 
	C190.990402,45.092171 191.969284,45.858841 192.528488,46.426208 
z"/>
<path fill="#FAC411" opacity="1.000000" stroke="none" 
	d="
M181.922150,77.822845 
	C181.244095,77.052116 180.598953,75.915245 179.883408,74.213020 
	C179.655197,73.367409 179.428619,73.163696 179.133270,73.036530 
	C179.090866,72.275375 179.048477,71.514221 179.254791,70.194710 
	C179.673279,69.086815 179.843094,68.537277 180.012894,67.987740 
	C182.520248,67.551689 185.027618,67.115646 188.334366,66.540581 
	C189.443680,68.072922 188.288849,72.022202 184.020233,73.589798 
	C181.444672,74.535637 181.784378,75.718666 181.922150,77.822845 
z"/>
<path fill="#FACA19" opacity="1.000000" stroke="none" 
	d="
M215.996277,102.634781 
	C211.823914,103.275490 207.915771,103.047218 206.906616,97.387741 
	C209.915176,98.756317 212.947769,100.503174 215.996277,102.634781 
z"/>
<path fill="#FACA19" opacity="1.000000" stroke="none" 
	d="
M180.009293,67.538986 
	C179.843094,68.537277 179.673279,69.086815 179.271759,69.813606 
	C179.176498,65.166588 179.312973,60.342316 179.717865,55.246826 
	C179.992737,59.013813 179.999207,63.052025 180.009293,67.538986 
z"/>
<path fill="#FAC411" opacity="1.000000" stroke="none" 
	d="
M250.999390,55.000610 
	C243.096115,54.667885 249.123215,50.227921 248.378998,47.784412 
	C248.831680,47.671143 249.284378,47.557873 249.737061,47.444603 
	C250.157623,49.688808 250.578186,51.933014 250.999374,54.588608 
	C251.000000,55.000000 250.999390,55.000610 250.999390,55.000610 
z"/>
<path fill="#FAC411" opacity="1.000000" stroke="none" 
	d="
M247.317841,66.496132 
	C246.833939,64.575226 246.553391,62.966805 246.272858,61.358383 
	C246.885101,61.207714 247.497345,61.057045 248.109589,60.906372 
	C249.042404,62.970142 249.975235,65.033913 251.465820,68.331680 
	C249.336792,67.509644 248.429001,67.159126 247.317841,66.496132 
z"/>
<path fill="#FACA19" opacity="1.000000" stroke="none" 
	d="
M206.936081,95.957306 
	C205.826187,95.154755 204.908051,94.024689 203.928589,92.579483 
	C205.258118,91.889931 206.648926,91.515511 208.039749,91.141083 
	C207.735779,92.637321 207.431793,94.133560 206.936081,95.957306 
z"/>
<path fill="#FAC411" opacity="1.000000" stroke="none" 
	d="
M251.000305,54.999771 
	C251.112686,55.131020 251.224762,55.262489 251.336838,55.393967 
	C251.258881,55.347702 251.180923,55.301430 251.051178,55.127884 
	C250.999390,55.000610 251.000000,55.000000 251.000305,54.999771 
z"/>
<path fill="#C6C6C6" opacity="1.000000" stroke="none" 
	d="
M175.003220,234.640305 
	C174.221313,235.336044 173.439377,235.661758 172.318970,235.975128 
	C171.823547,233.894547 171.062317,230.242996 171.614319,230.032303 
	C173.996414,229.123184 176.763245,229.222092 180.530533,228.837769 
	C177.969849,231.354523 176.486526,232.812393 175.003220,234.640305 
z"/>
<path fill="#C8D3E0" opacity="1.000000" stroke="none" 
	d="
M166.969528,244.982285 
	C167.058029,244.334915 167.146530,243.687546 167.235031,243.040176 
	C167.409607,243.077637 167.584167,243.115097 167.758728,243.152557 
	C167.629761,243.650742 167.500793,244.148911 167.186081,244.826599 
	C167.000320,245.006104 166.969528,244.982285 166.969528,244.982285 
z"/>
<path fill="#C8D3E0" opacity="1.000000" stroke="none" 
	d="
M167.011688,245.021927 
	C166.924622,245.059677 166.826172,245.081619 166.848633,245.042923 
	C166.969528,244.982285 167.000320,245.006104 167.011688,245.021927 
z"/>
<path fill="#F3F1EB" opacity="1.000000" stroke="none" 
	d="
M95.820480,172.380295 
	C95.747879,172.644089 95.391991,172.862106 95.195312,172.931915 
	C95.166412,172.456909 95.334190,171.912125 95.736374,171.195786 
	C95.944878,171.388336 95.918983,171.752411 95.820480,172.380295 
z"/>
<path fill="#FACA19" opacity="1.000000" stroke="none" 
	d="
M179.208649,73.255600 
	C179.428619,73.163696 179.655197,73.367409 179.892517,73.868164 
	C179.684067,73.949661 179.454727,73.744995 179.208649,73.255600 
z"/>
<path fill="#C6C6C6" opacity="1.000000" stroke="none" 
	d="
M112.528137,87.972504 
	C114.996666,89.395035 117.008118,90.817116 119.274010,92.419083 
	C116.634506,92.419083 113.883522,92.419083 110.770775,92.419083 
	C109.903961,96.206749 107.301750,96.639786 103.793884,95.493942 
	C102.264931,94.994522 100.523895,95.144341 98.444580,94.998886 
	C98.009819,93.380241 98.009651,91.762001 98.000732,89.759766 
	C102.685005,88.907860 107.378029,88.439957 112.528137,87.972504 
z"/>
</svg>